<svg version="1.1" id="Layer_1" xmlns="http://www.w3.org/2000/svg" xmlns:xlink="http://www.w3.org/1999/xlink" x="0px" y="0px"
	 width="100%" viewBox="0 0 520 520" enable-background="new 0 0 520 520" xml:space="preserve">
<path fill="transparent" opacity="1.000000" stroke="none" 
	d="
M1.000000,196.000000 
	C1.000000,130.666672 1.000000,65.833351 1.000000,1.000017 
	C174.333313,1.000012 347.666626,1.000012 521.000000,1.000006 
	C521.000000,174.333298 521.000000,347.666595 521.000000,520.999878 
	C347.666748,520.999939 174.333466,520.999939 1.000105,521.000000 
	C1.000000,412.833344 1.000000,304.666656 1.000000,196.000000 
M389.172028,315.182007 
	C389.172028,315.182007 389.052002,315.496674 388.748901,315.563934 
	C388.550049,315.674286 388.442871,315.842957 388.155579,316.148315 
	C388.155579,316.148315 388.057800,316.413788 387.721558,316.521790 
	C387.498260,316.648132 387.368622,316.838348 386.782867,317.506836 
	C379.394928,323.308228 372.108521,329.245667 364.583191,334.863037 
	C359.595612,338.586090 354.265747,341.850616 348.778320,345.429230 
	C348.593170,345.589386 348.531036,345.787903 348.229523,346.214813 
	C348.229523,346.214813 348.122314,346.609711 347.728455,347.214325 
	C347.644012,348.039551 347.486481,348.864685 347.485535,349.690002 
	C347.430756,397.459564 347.381012,445.229095 347.380035,492.998657 
	C347.380005,494.596802 347.885162,496.194916 348.554718,498.406036 
	C348.724548,498.581146 348.894409,498.756256 349.095398,499.493744 
	C351.065826,500.063477 353.033203,501.116089 355.007141,501.128540 
	C375.486023,501.257935 395.965942,501.232147 416.445587,501.220490 
	C422.307800,501.217163 423.810883,499.749817 423.820984,493.806671 
	C423.920349,435.201813 424.009918,376.596924 423.977356,317.992096 
	C423.976257,316.034698 422.653198,314.078003 421.863495,312.022552 
	C421.863495,312.022552 421.770386,312.111450 421.244659,311.691925 
	C412.921448,311.511749 404.598053,311.231323 396.275208,311.246063 
	C394.819305,311.248657 393.365570,312.491730 391.248016,313.496490 
	C391.068604,313.666962 390.889221,313.837433 390.754883,313.785492 
	C390.754883,313.785492 390.550140,314.077728 390.182861,314.224762 
	C390.182861,314.224762 390.034698,314.591614 389.750183,314.591400 
	C389.552917,314.685608 389.464691,314.841522 389.172028,315.182007 
M177.875702,352.358368 
	C177.588974,348.207916 174.005859,348.487488 171.610916,348.463959 
	C150.548828,348.257141 129.483337,348.262360 108.421089,348.451324 
	C106.708832,348.466705 105.012962,350.307922 102.597511,351.492615 
	C102.393936,355.261261 102.017349,359.029694 102.013313,362.798553 
	C101.968185,404.922272 102.114243,447.046722 101.903023,489.169464 
	C101.831573,503.417908 102.984131,501.621948 114.281136,501.610596 
	C133.261749,501.591522 152.242401,501.626953 171.223038,501.616089 
	C174.460327,501.614258 177.764008,501.591736 177.988358,496.074890 
	C177.939911,486.676178 177.891464,477.277496 177.989746,467.042084 
	C177.940750,465.063904 177.891769,463.085693 177.995880,460.383820 
	C177.944763,429.256226 177.893631,398.128632 177.992767,366.258026 
	C177.942276,365.505096 177.891785,364.752167 177.993515,363.099213 
	C177.933594,359.778290 177.873672,356.457367 177.875702,352.358368 
M242.419998,24.840349 
	C230.048645,27.906130 217.677307,30.971910 204.541595,34.020523 
	C203.933304,34.285782 203.331390,34.566883 202.715836,34.814049 
	C128.847900,64.474693 87.739288,143.352234 105.858345,220.664886 
	C120.808083,284.454315 174.205612,333.752045 238.362549,343.339874 
	C261.278015,346.764435 283.792999,345.311920 306.019257,339.130157 
	C393.157684,314.894501 444.125946,223.904526 418.019257,138.170547 
	C402.308807,86.577705 368.141266,51.904224 317.135803,32.755150 
	C311.892578,31.218719 306.702911,29.458851 301.396484,28.185955 
	C282.187225,23.578083 262.769440,22.276722 243.043365,24.929710 
	C243.043365,24.929710 242.951630,25.020327 242.419998,24.840349 
M224.226089,465.499878 
	C224.223816,474.822296 224.196960,484.144775 224.227783,493.467072 
	C224.248764,499.811768 225.522842,501.079590 231.810120,501.083069 
	C252.286179,501.094421 272.762238,501.091370 293.238281,501.081238 
	C299.289795,501.078247 301.080994,499.398010 301.083252,493.516113 
	C301.098206,454.894714 301.090210,416.273315 301.067444,377.651917 
	C301.063660,371.220245 299.692932,369.922302 293.078827,369.918732 
	C273.106934,369.907990 253.135025,369.920135 233.163132,369.911865 
	C224.965576,369.908447 224.142563,370.742889 224.150970,379.103546 
	C224.179596,407.568970 224.201782,436.034424 224.226089,465.499878 
z"/>
<path fill="#F9F6F1" opacity="1.000000" stroke="none" 
	d="
M317.718811,33.095032 
	C368.141266,51.904224 402.308807,86.577705 418.019257,138.170547 
	C444.125946,223.904526 393.157684,314.894501 306.019257,339.130157 
	C283.792999,345.311920 261.278015,346.764435 238.362549,343.339874 
	C174.205612,333.752045 120.808083,284.454315 105.858345,220.664886 
	C87.739288,143.352234 128.847900,64.474693 202.715836,34.814049 
	C203.331390,34.566883 203.933304,34.285782 205.328094,34.049286 
	C207.277039,34.013794 208.472824,34.103947 209.596741,33.861259 
	C220.257614,31.559250 230.911469,29.223333 241.544281,26.796217 
	C242.118591,26.665119 242.487244,25.633009 242.951630,25.020325 
	C242.951630,25.020327 243.043365,24.929710 243.487091,25.060234 
	C248.576660,24.924862 253.220215,24.595793 257.869598,24.427578 
	C259.481079,24.369278 261.119049,24.633940 262.723053,24.888817 
	C264.503052,25.171661 266.269958,25.981468 268.022034,25.924999 
	C281.613556,25.486940 294.708954,28.201454 307.729584,31.688620 
	C310.953613,32.552074 314.383545,32.646893 317.718811,33.095032 
M145.816650,116.302681 
	C129.090103,145.690445 124.126801,177.191208 130.430557,210.169418 
	C144.016052,281.242126 211.992767,328.778168 283.267761,317.604218 
	C357.771729,305.924133 403.930420,240.912018 398.054138,170.726852 
	C391.742859,95.345703 319.669464,39.076775 243.983261,50.600548 
	C201.354584,57.091068 168.564713,78.640587 145.816650,116.302681 
z"/>
<path fill="#FBF8F2" opacity="1.000000" stroke="none" 
	d="
M349.089111,345.320374 
	C354.265747,341.850616 359.595612,338.586090 364.583191,334.863037 
	C372.108521,329.245667 379.394928,323.308228 387.252502,317.280640 
	C387.998077,316.926636 388.109955,316.713104 388.057800,316.413788 
	C388.057800,316.413788 388.155579,316.148315 388.464111,316.110352 
	C389.022247,315.956360 389.115387,315.764465 389.052002,315.496674 
	C389.052002,315.496674 389.172028,315.182007 389.481628,315.139740 
	C390.025330,315.002380 390.106506,314.833771 390.034698,314.591614 
	C390.034698,314.591614 390.182861,314.224762 390.400879,314.163940 
	C390.618896,314.103149 390.709808,314.007904 390.709808,314.007904 
	C390.889221,313.837433 391.068604,313.666962 391.947998,313.353546 
	C395.411865,312.867859 398.170319,312.292816 400.940674,312.228119 
	C407.881042,312.066010 414.826782,312.135101 421.770386,312.111450 
	C421.770386,312.111450 421.863495,312.022552 421.999390,312.471069 
	C422.389099,315.219086 422.862946,317.518494 422.864441,319.818207 
	C422.902466,377.462646 422.892975,435.107147 422.884674,492.751617 
	C422.883728,499.258057 422.122650,500.072388 415.830627,500.077850 
	C395.671753,500.095276 375.512726,500.110474 355.354218,500.022614 
	C353.256012,500.013458 351.160828,499.311737 349.064240,498.931335 
	C348.894409,498.756256 348.724548,498.581146 348.397888,497.712067 
	C348.220642,494.686371 348.183411,492.354645 348.182312,490.022919 
	C348.159851,442.218506 348.141510,394.414124 348.122314,346.609711 
	C348.122314,346.609711 348.229523,346.214813 348.577942,346.086243 
	C349.113586,345.779236 349.167816,345.566803 349.089111,345.320374 
z"/>
<path fill="#FAF7F2" opacity="1.000000" stroke="none" 
	d="
M177.841293,363.999237 
	C177.891785,364.752167 177.942276,365.505096 177.537125,366.741577 
	C176.721283,368.584015 176.049683,369.942261 176.046783,371.301941 
	C175.986298,399.692444 175.972687,428.083221 176.080338,456.473419 
	C176.086197,458.020325 177.229126,459.562927 177.842773,461.107513 
	C177.891769,463.085693 177.940750,465.063904 177.498047,467.644836 
	C176.671310,469.980011 176.079544,471.707642 176.047272,473.445648 
	C175.929794,479.771393 176.080109,486.101929 175.975204,492.428101 
	C175.875900,498.415741 175.216141,498.995087 169.330200,498.997314 
	C150.346481,499.004517 131.362564,498.963470 112.379311,499.058075 
	C110.536346,499.067230 108.697418,499.887451 106.508347,500.228699 
	C105.141151,498.409943 104.122215,496.693695 103.351364,494.717896 
	C103.434875,492.646637 103.270294,490.834930 103.043900,488.683899 
	C103.023643,487.888306 103.065193,487.432098 103.374359,486.661926 
	C103.745308,471.821899 103.858376,457.295837 103.916328,442.769562 
	C103.918648,442.189972 103.397675,441.608246 103.056595,440.598450 
	C103.035225,438.437164 103.077797,436.704926 103.385071,434.657013 
	C103.766304,422.310944 103.905861,410.280670 103.959778,398.250000 
	C103.964584,397.177063 103.413208,396.101654 103.056152,394.609436 
	C103.033455,392.785645 103.074753,391.379761 103.381638,389.658691 
	C103.764809,380.954468 103.963486,372.565338 103.953415,364.176483 
	C103.950150,361.458374 103.399826,358.740936 103.042603,355.686554 
	C103.044891,354.900604 103.104309,354.451324 103.523361,353.942078 
	C106.691521,352.921417 109.489288,351.166809 112.310272,351.128693 
	C130.791977,350.878815 149.278763,351.025116 167.763596,350.958954 
	C169.505341,350.952728 171.244995,350.372284 173.291931,350.038513 
	C174.448105,350.515198 175.297989,351.011780 176.108765,352.002930 
	C176.046661,354.326874 175.776123,356.196594 176.065689,357.975067 
	C176.399460,360.025146 177.227753,361.994720 177.841293,363.999237 
z"/>
<path fill="#F9F6F1" opacity="1.000000" stroke="none" 
	d="
M224.226257,464.999878 
	C224.201782,436.034424 224.179596,407.568970 224.150970,379.103546 
	C224.142563,370.742889 224.965576,369.908447 233.163132,369.911865 
	C253.135025,369.920135 273.106934,369.907990 293.078827,369.918732 
	C299.692932,369.922302 301.063660,371.220245 301.067444,377.651917 
	C301.090210,416.273315 301.098206,454.894714 301.083252,493.516113 
	C301.080994,499.398010 299.289795,501.078247 293.238281,501.081238 
	C272.762238,501.091370 252.286179,501.094421 231.810120,501.083069 
	C225.522842,501.079590 224.248764,499.811768 224.227783,493.467072 
	C224.196960,484.144775 224.223816,474.822296 224.226257,464.999878 
z"/>
<path fill="#C7D3DE" opacity="1.000000" stroke="none" 
	d="
M349.079834,499.212524 
	C351.160828,499.311737 353.256012,500.013458 355.354218,500.022614 
	C375.512726,500.110474 395.671753,500.095276 415.830627,500.077850 
	C422.122650,500.072388 422.883728,499.258057 422.884674,492.751617 
	C422.892975,435.107147 422.902466,377.462646 422.864441,319.818207 
	C422.862946,317.518494 422.389099,315.219086 422.040833,312.520264 
	C422.653198,314.078003 423.976257,316.034698 423.977356,317.992096 
	C424.009918,376.596924 423.920349,435.201813 423.820984,493.806671 
	C423.810883,499.749817 422.307800,501.217163 416.445587,501.220490 
	C395.965942,501.232147 375.486023,501.257935 355.007141,501.128540 
	C353.033203,501.116089 351.065826,500.063477 349.079834,499.212524 
z"/>
<path fill="#577AA2" opacity="1.000000" stroke="none" 
	d="
M103.120361,434.972687 
	C103.077797,436.704926 103.035225,438.437164 102.990509,441.061096 
	C103.027817,456.960480 103.067284,471.968170 103.106750,486.975891 
	C103.065193,487.432098 103.023643,487.888306 102.978241,489.105469 
	C103.017357,491.570129 103.060310,493.273804 103.103271,494.977478 
	C104.122215,496.693695 105.141151,498.409943 106.884735,500.411926 
	C128.524170,500.724060 149.440598,500.877747 170.351639,500.610474 
	C172.873749,500.578247 175.366776,498.268860 177.873291,497.014923 
	C177.764008,501.591736 174.460327,501.614258 171.223038,501.616089 
	C152.242401,501.626953 133.261749,501.591522 114.281136,501.610596 
	C102.984131,501.621948 101.831573,503.417908 101.903023,489.169464 
	C102.114243,447.046722 101.968185,404.922272 102.013313,362.798553 
	C102.017349,359.029694 102.393936,355.261261 103.073120,351.517883 
	C103.548737,351.543121 103.792458,351.784332 103.592468,352.011475 
	C103.316231,352.826385 103.239975,353.414215 103.163719,354.002014 
	C103.104309,354.451324 103.044891,354.900604 102.977600,356.149628 
	C103.018494,367.957520 103.067276,378.965698 103.116058,389.973877 
	C103.074753,391.379761 103.033455,392.785645 102.989029,395.071960 
	C103.030716,408.959167 103.075539,421.965912 103.120361,434.972687 
z"/>
<path fill="#F6F6F6" opacity="1.000000" stroke="none" 
	d="
M177.930817,496.544922 
	C175.366776,498.268860 172.873749,500.578247 170.351639,500.610474 
	C149.440598,500.877747 128.524170,500.724060 107.233002,500.514435 
	C108.697418,499.887451 110.536346,499.067230 112.379311,499.058075 
	C131.362564,498.963470 150.346481,499.004517 169.330200,498.997314 
	C175.216141,498.995087 175.875900,498.415741 175.975204,492.428101 
	C176.080109,486.101929 175.929794,479.771393 176.047272,473.445648 
	C176.079544,471.707642 176.671310,469.980011 177.424683,468.063202 
	C177.891464,477.277496 177.939911,486.676178 177.930817,496.544922 
z"/>
<path fill="#F6F6F6" opacity="1.000000" stroke="none" 
	d="
M177.919342,460.745667 
	C177.229126,459.562927 176.086197,458.020325 176.080338,456.473419 
	C175.972687,428.083221 175.986298,399.692444 176.046783,371.301941 
	C176.049683,369.942261 176.721283,368.584015 177.462006,367.113068 
	C177.893631,398.128632 177.944763,429.256226 177.919342,460.745667 
z"/>
<path fill="#E8ECEF" opacity="1.000000" stroke="none" 
	d="
M317.427307,32.925091 
	C314.383545,32.646893 310.953613,32.552074 307.729584,31.688620 
	C294.708954,28.201454 281.613556,25.486940 268.022034,25.924999 
	C266.269958,25.981468 264.503052,25.171661 262.723053,24.888817 
	C261.119049,24.633940 259.481079,24.369278 257.869598,24.427578 
	C253.220215,24.595793 248.576660,24.924862 243.538391,25.099277 
	C262.769440,22.276722 282.187225,23.578083 301.396484,28.185955 
	C306.702911,29.458851 311.892578,31.218719 317.427307,32.925091 
z"/>
<path fill="#C7D3DE" opacity="1.000000" stroke="none" 
	d="
M347.925415,346.912018 
	C348.141510,394.414124 348.159851,442.218506 348.182312,490.022919 
	C348.183411,492.354645 348.220642,494.686371 348.197937,497.405579 
	C347.885162,496.194916 347.380005,494.596802 347.380035,492.998657 
	C347.381012,445.229095 347.430756,397.459564 347.485535,349.690002 
	C347.486481,348.864685 347.644012,348.039551 347.925415,346.912018 
z"/>
<path fill="#577AA2" opacity="1.000000" stroke="none" 
	d="
M176.147888,351.508362 
	C175.297989,351.011780 174.448105,350.515198 172.834351,349.932495 
	C151.269440,349.808228 130.468124,349.714966 109.667824,349.821777 
	C107.706062,349.831848 105.750755,351.100189 103.792450,351.784302 
	C103.792458,351.784332 103.548737,351.543121 103.429108,351.421936 
	C105.012962,350.307922 106.708832,348.466705 108.421089,348.451324 
	C129.483337,348.262360 150.548828,348.257141 171.610916,348.463959 
	C174.005859,348.487488 177.588974,348.207916 177.581268,352.610596 
	C176.907166,352.411316 176.527527,351.959839 176.147888,351.508362 
z"/>
<path fill="#E8ECEF" opacity="1.000000" stroke="none" 
	d="
M242.685822,24.930336 
	C242.487244,25.633009 242.118591,26.665119 241.544281,26.796217 
	C230.911469,29.223333 220.257614,31.559250 209.596741,33.861259 
	C208.472824,34.103947 207.277039,34.013794 205.710266,34.057869 
	C217.677307,30.971910 230.048645,27.906130 242.685822,24.930336 
z"/>
<path fill="#C7D3DE" opacity="1.000000" stroke="none" 
	d="
M421.507507,311.901672 
	C414.826782,312.135101 407.881042,312.066010 400.940674,312.228119 
	C398.170319,312.292816 395.411865,312.867859 392.279419,313.186249 
	C393.365570,312.491730 394.819305,311.248657 396.275208,311.246063 
	C404.598053,311.231323 412.921448,311.511749 421.507507,311.901672 
z"/>
<path fill="#F6F6F6" opacity="1.000000" stroke="none" 
	d="
M176.108765,352.002930 
	C176.527527,351.959839 176.907166,352.411316 177.550293,352.999634 
	C177.873672,356.457367 177.933594,359.778290 177.917404,363.549225 
	C177.227753,361.994720 176.399460,360.025146 176.065689,357.975067 
	C175.776123,356.196594 176.046661,354.326874 176.108765,352.002930 
z"/>
<path fill="#C7D3DE" opacity="1.000000" stroke="none" 
	d="
M390.732361,313.896698 
	C390.709808,314.007904 390.618896,314.103149 390.584534,314.090454 
	C390.550140,314.077728 390.754883,313.785492 390.732361,313.896698 
z"/>
<path fill="#C7D3DE" opacity="1.000000" stroke="none" 
	d="
M348.933716,345.374817 
	C349.167816,345.566803 349.113586,345.779236 348.759155,345.991211 
	C348.531036,345.787903 348.593170,345.589386 348.933716,345.374817 
z"/>
<path fill="#C7D3DE" opacity="1.000000" stroke="none" 
	d="
M387.889679,316.467773 
	C388.109955,316.713104 387.998077,316.926636 387.527405,317.073486 
	C387.368622,316.838348 387.498260,316.648132 387.889679,316.467773 
z"/>
<path fill="#C7D3DE" opacity="1.000000" stroke="none" 
	d="
M388.900452,315.530304 
	C389.115387,315.764465 389.022247,315.956360 388.600006,316.071106 
	C388.442871,315.842957 388.550049,315.674286 388.900452,315.530304 
z"/>
<path fill="#C7D3DE" opacity="1.000000" stroke="none" 
	d="
M389.892456,314.591492 
	C390.106506,314.833771 390.025330,315.002380 389.638397,315.078308 
	C389.464691,314.841522 389.552917,314.685608 389.892456,314.591492 
z"/>
<path fill="transparent" opacity="1.000000" stroke="none" 
	d="
M145.974365,115.972824 
	C168.564713,78.640587 201.354584,57.091068 243.983261,50.600548 
	C319.669464,39.076775 391.742859,95.345703 398.054138,170.726852 
	C403.930420,240.912018 357.771729,305.924133 283.267761,317.604218 
	C211.992767,328.778168 144.016052,281.242126 130.430557,210.169418 
	C124.126801,177.191208 129.090103,145.690445 145.974365,115.972824 
M313.192108,192.371750 
	C303.666351,180.347855 289.833160,176.227219 275.756042,172.235962 
	C275.756042,155.853088 275.756042,139.602921 275.756042,123.186905 
	C281.680359,124.749001 286.973907,127.871628 288.982452,133.144211 
	C293.110779,143.981537 301.031738,145.319824 310.737152,143.992584 
	C311.227814,143.925476 311.737366,144.011169 312.235687,143.982773 
	C316.580597,143.735275 318.198273,141.807205 317.426178,137.557159 
	C315.618713,127.607773 311.046631,119.103134 303.877136,111.977081 
	C296.155273,104.302048 286.812744,99.683189 276.028534,97.524185 
	C276.028534,93.454552 276.096497,89.633446 276.009766,85.815842 
	C275.919891,81.858955 274.061096,79.615433 269.830902,79.700211 
	C265.504486,79.786926 261.173737,79.805641 256.847595,79.718346 
	C252.833145,79.637337 251.031845,81.681870 250.978516,85.491165 
	C250.922958,89.457764 250.966125,93.425735 250.966125,97.309341 
	C225.123764,102.198952 209.294220,117.911606 206.956558,141.014145 
	C205.964096,150.822250 207.681747,160.093933 212.886414,168.757660 
	C221.539948,183.162338 235.952118,187.988708 250.900894,192.091705 
	C250.900894,208.832123 250.900894,225.305374 250.900894,242.824295 
	C247.791763,241.447540 245.004807,240.552505 242.575424,239.071091 
	C236.446518,235.333771 233.231567,229.275681 230.789154,222.846069 
	C229.670181,219.900391 228.131500,218.631699 224.921097,218.807343 
	C220.434677,219.052795 215.924789,218.845657 211.425354,218.882004 
	C205.374542,218.930878 204.224319,220.734238 205.669266,226.542130 
	C211.549240,250.176086 226.802887,263.166504 250.937134,266.572693 
	C250.937134,271.381989 250.897675,276.186127 250.949631,280.989258 
	C250.991104,284.824829 252.731659,286.774872 256.844666,286.561829 
	C260.993500,286.346863 265.179962,286.302490 269.318939,286.606018 
	C273.577179,286.918304 275.629883,285.234344 275.648010,281.022308 
	C275.668701,276.220795 275.652771,271.419128 275.652771,266.365051 
	C293.337280,263.888977 308.328857,257.376221 316.345917,240.500000 
	C324.062195,224.256927 324.486603,208.213867 313.192108,192.371750 
z"/>
<path fill="#F6F6F6" opacity="1.000000" stroke="none" 
	d="
M103.592468,352.011444 
	C105.750755,351.100189 107.706062,349.831848 109.667824,349.821777 
	C130.468124,349.714966 151.269440,349.808228 172.528046,349.952393 
	C171.244995,350.372284 169.505341,350.952728 167.763596,350.958954 
	C149.278763,351.025116 130.791977,350.878815 112.310272,351.128693 
	C109.489288,351.166809 106.691521,352.921417 103.523361,353.942078 
	C103.239975,353.414215 103.316231,352.826385 103.592468,352.011444 
z"/>
<path fill="#F6F6F6" opacity="1.000000" stroke="none" 
	d="
M103.374359,486.661926 
	C103.067284,471.968170 103.027817,456.960480 103.054443,441.490143 
	C103.397675,441.608246 103.918648,442.189972 103.916328,442.769562 
	C103.858376,457.295837 103.745308,471.821899 103.374359,486.661926 
z"/>
<path fill="#F6F6F6" opacity="1.000000" stroke="none" 
	d="
M103.385071,434.657013 
	C103.075539,421.965912 103.030716,408.959167 103.053017,395.489868 
	C103.413208,396.101654 103.964584,397.177063 103.959778,398.250000 
	C103.905861,410.280670 103.766304,422.310944 103.385071,434.657013 
z"/>
<path fill="#F6F6F6" opacity="1.000000" stroke="none" 
	d="
M103.381638,389.658691 
	C103.067276,378.965698 103.018494,367.957520 103.034729,356.486267 
	C103.399826,358.740936 103.950150,361.458374 103.953415,364.176483 
	C103.963486,372.565338 103.764809,380.954468 103.381638,389.658691 
z"/>
<path fill="#F6F6F6" opacity="1.000000" stroke="none" 
	d="
M103.351364,494.717896 
	C103.060310,493.273804 103.017357,491.570129 103.040054,489.444855 
	C103.270294,490.834930 103.434875,492.646637 103.351364,494.717896 
z"/>
<path fill="#F8F5F1" opacity="1.000000" stroke="none" 
	d="
M313.427582,192.642059 
	C324.486603,208.213867 324.062195,224.256927 316.345917,240.500000 
	C308.328857,257.376221 293.337280,263.888977 275.652771,266.365051 
	C275.652771,271.419128 275.668701,276.220795 275.648010,281.022308 
	C275.629883,285.234344 273.577179,286.918304 269.318939,286.606018 
	C265.179962,286.302490 260.993500,286.346863 256.844666,286.561829 
	C252.731659,286.774872 250.991104,284.824829 250.949631,280.989258 
	C250.897675,276.186127 250.937134,271.381989 250.937134,266.572693 
	C226.802887,263.166504 211.549240,250.176086 205.669266,226.542130 
	C204.224319,220.734238 205.374542,218.930878 211.425354,218.882004 
	C215.924789,218.845657 220.434677,219.052795 224.921097,218.807343 
	C228.131500,218.631699 229.670181,219.900391 230.789154,222.846069 
	C233.231567,229.275681 236.446518,235.333771 242.575424,239.071091 
	C245.004807,240.552505 247.791763,241.447540 250.900894,242.824295 
	C250.900894,225.305374 250.900894,208.832123 250.900894,192.091705 
	C235.952118,187.988708 221.539948,183.162338 212.886414,168.757660 
	C207.681747,160.093933 205.964096,150.822250 206.956558,141.014145 
	C209.294220,117.911606 225.123764,102.198952 250.966125,97.309341 
	C250.966125,93.425735 250.922958,89.457764 250.978516,85.491165 
	C251.031845,81.681870 252.833145,79.637337 256.847595,79.718346 
	C261.173737,79.805641 265.504486,79.786926 269.830902,79.700211 
	C274.061096,79.615433 275.919891,81.858955 276.009766,85.815842 
	C276.096497,89.633446 276.028534,93.454552 276.028534,97.524185 
	C286.812744,99.683189 296.155273,104.302048 303.877136,111.977081 
	C311.046631,119.103134 315.618713,127.607773 317.426178,137.557159 
	C318.198273,141.807205 316.580597,143.735275 312.235687,143.982773 
	C311.737366,144.011169 311.227814,143.925476 310.737152,143.992584 
	C301.031738,145.319824 293.110779,143.981537 288.982452,133.144211 
	C286.973907,127.871628 281.680359,124.749001 275.756042,123.186905 
	C275.756042,139.602921 275.756042,155.853088 275.756042,172.235962 
	C289.833160,176.227219 303.666351,180.347855 313.427582,192.642059 
M280.598907,241.158203 
	C292.301880,237.099609 298.178131,227.957184 296.177429,216.920807 
	C294.358734,206.888504 285.235748,199.182556 275.582886,199.463608 
	C275.582886,213.630432 275.582886,227.793991 275.582886,242.293732 
	C277.316345,241.941666 278.591095,241.682770 280.598907,241.158203 
M234.631912,134.333694 
	C227.954025,149.634109 234.587982,162.254547 250.981995,165.342087 
	C250.981995,151.241882 250.981995,137.152542 250.981995,122.669289 
	C243.919373,124.170792 238.530182,127.528084 234.631912,134.333694 
z"/>
<path fill="#020509" opacity="1.000000" stroke="none" 
	d="
M280.232361,241.291031 
	C278.591095,241.682770 277.316345,241.941666 275.582886,242.293732 
	C275.582886,227.793991 275.582886,213.630432 275.582886,199.463608 
	C285.235748,199.182556 294.358734,206.888504 296.177429,216.920807 
	C298.178131,227.957184 292.301880,237.099609 280.232361,241.291031 
z"/>
<path fill="#01070F" opacity="1.000000" stroke="none" 
	d="
M234.834641,134.016907 
	C238.530182,127.528084 243.919373,124.170792 250.981995,122.669289 
	C250.981995,137.152542 250.981995,151.241882 250.981995,165.342087 
	C234.587982,162.254547 227.954025,149.634109 234.834641,134.016907 
z"/>
</svg>